<svg width="64" height="64" viewBox="0 0 64 64" fill="none" xmlns="http://www.w3.org/2000/svg">
<path d="M22.4379 2.66666H50.6667C52.0812 2.66666 53.4377 3.22856 54.4379 4.22875C55.4381 5.22895 56 6.5855 56 7.99999V56C56 57.4145 55.4381 58.771 54.4379 59.7712C53.4377 60.7714 52.0812 61.3333 50.6667 61.3333H13.3333C11.9188 61.3333 10.5623 60.7714 9.5621 59.7712C8.5619 58.771 8 57.4145 8 56V17.1046C8 16.7544 8.06898 16.4076 8.20299 16.0841C8.337 15.7605 8.53343 15.4666 8.78105 15.2189L20.5523 3.44771C21.0524 2.94761 21.7307 2.66666 22.4379 2.66666Z" fill="#CCD4FF"/>
<path d="M25.3333 18.6667H14.6667C12.4575 18.6667 10.6667 20.4575 10.6667 22.6667V22.6667C10.6667 24.8758 12.4575 26.6667 14.6667 26.6667H25.3333C27.5425 26.6667 29.3333 24.8758 29.3333 22.6667C29.3333 20.4575 27.5425 18.6667 25.3333 18.6667Z" fill="#A4B1FF"/>
<path d="M26.6667 6.43789V17.5621C26.6667 18.5623 26.2693 19.5215 25.5621 20.2288C24.8549 20.936 23.8956 21.3333 22.8954 21.3333H11.7712C10.771 21.3333 9.81181 20.936 9.10457 20.2288C8.39733 19.5215 8 18.5623 8 17.5621C8 17.0668 8.09755 16.5764 8.28707 16.1189C8.47659 15.6613 8.75438 15.2456 9.10457 14.8954L20.2288 3.77123C20.579 3.42103 20.9947 3.14325 21.4522 2.95372C21.9098 2.7642 22.4002 2.66666 22.8954 2.66666C23.3907 2.66666 23.8811 2.7642 24.3386 2.95372C24.7962 3.14324 25.2119 3.42103 25.5621 3.77122C25.9123 4.12141 26.1901 4.53715 26.3796 4.9947C26.5691 5.45225 26.6667 5.94264 26.6667 6.43789Z" fill="#DFE5FF"/>
<path d="M20.781 5.88561L11.219 15.4477C10.4826 16.1841 10.4826 17.378 11.219 18.1144L11.219 18.1144C11.9553 18.8508 13.1492 18.8508 13.8856 18.1144L23.4477 8.55227C24.1841 7.81589 24.1841 6.62199 23.4477 5.88561C22.7113 5.14923 21.5174 5.14923 20.781 5.88561Z" fill="#EFF2FF"/>
<path d="M45.3333 10.6667H32C30.5273 10.6667 29.3333 11.8606 29.3333 13.3333V29.3333C29.3333 30.8061 30.5273 32 32 32H45.3333C46.8061 32 48 30.8061 48 29.3333V13.3333C48 11.8606 46.8061 10.6667 45.3333 10.6667Z" fill="#005EEE"/>
<path d="M21.3333 53.3333H18.6667C17.9597 53.3328 17.2819 53.0517 16.7822 52.5516C16.2825 52.0516 16.0018 51.3736 16.0018 50.6667C16.0018 49.9597 16.2825 49.2817 16.7822 48.7817C17.2819 48.2816 17.9597 48.0005 18.6667 48H21.3333C22.0403 48.0005 22.7181 48.2816 23.2178 48.7817C23.7175 49.2817 23.9982 49.9597 23.9982 50.6667C23.9982 51.3736 23.7175 52.0516 23.2178 52.5516C22.7181 53.0517 22.0403 53.3328 21.3333 53.3333Z" fill="#163969"/>
<path d="M45.3333 53.3333H32C31.2931 53.3328 30.6153 53.0517 30.1155 52.5516C29.6158 52.0516 29.3351 51.3736 29.3351 50.6667C29.3351 49.9597 29.6158 49.2817 30.1155 48.7817C30.6153 48.2816 31.2931 48.0005 32 48H45.3333C46.0402 48.0005 46.7181 48.2816 47.2178 48.7817C47.7175 49.2817 47.9982 49.9597 47.9982 50.6667C47.9982 51.3736 47.7175 52.0516 47.2178 52.5516C46.7181 53.0517 46.0402 53.3328 45.3333 53.3333Z" fill="#163969"/>
<path d="M45.3333 42.6666H18.6667C17.9594 42.6666 17.2811 42.3857 16.781 41.8856C16.281 41.3855 16 40.7072 16 40C16 39.2927 16.281 38.6145 16.781 38.1144C17.2811 37.6143 17.9594 37.3333 18.6667 37.3333H45.3333C46.0406 37.3333 46.7189 37.6143 47.219 38.1144C47.719 38.6145 48 39.2927 48 40C48 40.7072 47.719 41.3855 47.219 41.8856C46.7189 42.3857 46.0406 42.6666 45.3333 42.6666Z" fill="#163969"/>
<path d="M38.6667 21.3333C40.8758 21.3333 42.6667 19.5425 42.6667 17.3333C42.6667 15.1242 40.8758 13.3333 38.6667 13.3333C36.4575 13.3333 34.6667 15.1242 34.6667 17.3333C34.6667 19.5425 36.4575 21.3333 38.6667 21.3333Z" fill="#FFD700"/>
<path d="M42.6667 24H34.6667C33.9597 24.0005 33.2819 24.2816 32.7822 24.7817C32.2825 25.2817 32.0018 25.9597 32.0018 26.6667C32.0018 27.3736 32.2825 28.0516 32.7822 28.5516C33.2819 29.0517 33.9597 29.3328 34.6667 29.3333H42.6667C43.0169 29.3333 43.3636 29.2644 43.6872 29.1303C44.0107 28.9963 44.3047 28.7999 44.5523 28.5523C44.7999 28.3047 44.9963 28.0107 45.1304 27.6872C45.2644 27.3636 45.3333 27.0169 45.3333 26.6667C45.3333 26.3165 45.2644 25.9697 45.1304 25.6462C44.9963 25.3226 44.7999 25.0287 44.5523 24.781C44.3047 24.5334 44.0107 24.337 43.6872 24.203C43.3636 24.069 43.0169 24 42.6667 24Z" fill="#FFD700"/>
<path d="M44 32H33.3333C32.597 32 32 32.597 32 33.3333C32 34.0697 32.597 34.6667 33.3333 34.6667H44C44.7364 34.6667 45.3333 34.0697 45.3333 33.3333C45.3333 32.597 44.7364 32 44 32Z" fill="#A4B1FF"/>
</svg>
